<svg xmlns="http://www.w3.org/2000/svg" xmlns:xlink="http://www.w3.org/1999/xlink" width="500" zoomAndPan="magnify" viewBox="0 0 375 374.999991" height="500" preserveAspectRatio="xMidYMid meet" version="1.0"><defs><filter x="0%" y="0%" width="100%" height="100%" id="ed1dfb5f4d"><feColorMatrix values="0 0 0 0 1 0 0 0 0 1 0 0 0 0 1 0 0 0 1 0" color-interpolation-filters="sRGB"/></filter><g/><mask id="1fe6ff5e84"><g filter="url(#ed1dfb5f4d)"><rect x="-37.5" width="450" fill="#000000" y="-37.499999" height="449.999989" fill-opacity="0.26"/></g></mask><clipPath id="0f30724581"><path d="M 0.640625 0 L 373 0 L 373 375 L 0.640625 375 Z M 0.640625 0 " clip-rule="nonzero"/></clipPath><clipPath id="8a3b7788cf"><path d="M 294 26 L 373 26 L 373 115 L 294 115 Z M 294 26 " clip-rule="nonzero"/></clipPath><clipPath id="12a39209ce"><rect x="0" width="373" y="0" height="375"/></clipPath><clipPath id="e6c2569da3"><rect x="0" width="373" y="0" height="375"/></clipPath></defs><g mask="url(#1fe6ff5e84)"><g transform="matrix(1, 0, 0, 1, 2, 0)"><g clip-path="url(#e6c2569da3)"><g clip-path="url(#0f30724581)"><g><g clip-path="url(#12a39209ce)"><g fill="#d9d9d9" fill-opacity="1"><g transform="translate(69.130868, 359.436633)"><g><path d="M 43.078125 -43.078125 L 31.921875 -31.921875 L 3.75 -38.625 L 10.46875 -10.46875 L 0 0 L -8.484375 -39.078125 L -45.140625 -47.078125 L -34.34375 -57.875 L -7.8125 -51.21875 L -14.671875 -77.546875 L -4.140625 -88.078125 L 4.25 -50.75 Z M 43.078125 -43.078125 "/></g></g></g><g fill="#d9d9d9" fill-opacity="1"><g transform="translate(112.208137, 316.359365)"><g><path d="M -40.3125 -51.90625 L -25.953125 -66.265625 C -19.410156 -72.804688 -13.734375 -76.625 -8.921875 -77.71875 C -4.109375 -78.8125 0.328125 -77.328125 4.390625 -73.265625 C 7.140625 -70.515625 8.75 -67.609375 9.21875 -64.546875 C 9.695312 -61.492188 9.046875 -58.710938 7.265625 -56.203125 L 7.578125 -55.890625 C 11.148438 -58.148438 14.472656 -59.035156 17.546875 -58.546875 C 20.617188 -58.054688 23.640625 -56.328125 26.609375 -53.359375 C 30.816406 -49.148438 32.578125 -44.347656 31.890625 -38.953125 C 31.210938 -33.566406 28.269531 -28.269531 23.0625 -23.0625 L 5.796875 -5.796875 Z M -12.28125 -43.4375 L -6.609375 -49.109375 C -3.953125 -51.765625 -2.4375 -54.09375 -2.0625 -56.09375 C -1.695312 -58.101562 -2.457031 -60.050781 -4.34375 -61.9375 C -6.113281 -63.707031 -8.03125 -64.328125 -10.09375 -63.796875 C -12.15625 -63.265625 -14.582031 -61.601562 -17.375 -58.8125 L -22.515625 -53.671875 Z M -4.5 -35.65625 L 7.5 -23.65625 L 13.875 -30.03125 C 16.5625 -32.71875 18.03125 -35.210938 18.28125 -37.515625 C 18.539062 -39.828125 17.601562 -42.050781 15.46875 -44.1875 C 11.65625 -48 7.015625 -47.171875 1.546875 -41.703125 Z M -4.5 -35.65625 "/></g></g></g><g fill="#d9d9d9" fill-opacity="1"><g transform="translate(155.600759, 272.966743)"><g><path d="M -11.203125 -60.640625 C -9.890625 -61.953125 -8.710938 -62.941406 -7.671875 -63.609375 L 0.640625 -53.859375 C -0.359375 -53.296875 -1.414062 -52.457031 -2.53125 -51.34375 C -5.59375 -48.28125 -7.191406 -45.097656 -7.328125 -41.796875 C -7.472656 -38.503906 -6.125 -35.4375 -3.28125 -32.59375 L 14.65625 -14.65625 L 5.046875 -5.046875 L -30.203125 -40.296875 L -22.921875 -47.578125 L -15.578125 -43.078125 L -15.109375 -43.546875 C -15.992188 -46.617188 -16.109375 -49.6875 -15.453125 -52.75 C -14.804688 -55.820312 -13.390625 -58.453125 -11.203125 -60.640625 Z M -11.203125 -60.640625 "/></g></g></g><g fill="#d9d9d9" fill-opacity="1"><g transform="translate(184.928622, 243.63888)"><g><path d="M -4.984375 -30.390625 C -1.503906 -26.910156 1.703125 -24.847656 4.640625 -24.203125 C 7.585938 -23.566406 10.351562 -24.539062 12.9375 -27.125 C 15.5 -29.6875 16.453125 -32.414062 15.796875 -35.3125 C 15.148438 -38.21875 13.070312 -41.425781 9.5625 -44.9375 C 6.070312 -48.425781 2.882812 -50.472656 0 -51.078125 C -2.875 -51.691406 -5.601562 -50.707031 -8.1875 -48.125 C -10.75 -45.5625 -11.734375 -42.84375 -11.140625 -39.96875 C -10.546875 -37.09375 -8.492188 -33.898438 -4.984375 -30.390625 Z M 19.40625 -54.78125 C 25.144531 -49.039062 28.113281 -43.035156 28.3125 -36.765625 C 28.519531 -30.503906 25.921875 -24.671875 20.515625 -19.265625 C 17.140625 -15.890625 13.414062 -13.644531 9.34375 -12.53125 C 5.28125 -11.425781 1.171875 -11.566406 -2.984375 -12.953125 C -7.148438 -14.347656 -11.082031 -16.894531 -14.78125 -20.59375 C -20.550781 -26.363281 -23.53125 -32.347656 -23.71875 -38.546875 C -23.90625 -44.742188 -21.28125 -50.5625 -15.84375 -56 C -12.445312 -59.394531 -8.722656 -61.648438 -4.671875 -62.765625 C -0.617188 -63.878906 3.476562 -63.753906 7.625 -62.390625 C 11.769531 -61.023438 15.695312 -58.488281 19.40625 -54.78125 Z M 19.40625 -54.78125 "/></g></g></g><g fill="#d9d9d9" fill-opacity="1"><g transform="translate(224.915428, 203.652073)"><g><path d="M 13.4375 -13.4375 L -35.25 -35.25 L -25.1875 -45.3125 L 1.703125 -32.046875 C 5.003906 -30.265625 7.890625 -28.328125 10.359375 -26.234375 L 10.546875 -26.421875 C 8.628906 -28.546875 6.6875 -31.425781 4.71875 -35.0625 L -8.5625 -61.9375 L 1.484375 -71.984375 L 23.296875 -23.296875 Z M 13.4375 -13.4375 "/></g></g></g><g fill="#d9d9d9" fill-opacity="1"><g transform="translate(261.654112, 166.91339)"><g><path d="M 27.4375 -27.4375 L 20.78125 -30.375 L 20.53125 -30.125 C 20.945312 -26.457031 20.691406 -23.375 19.765625 -20.875 C 18.835938 -18.375 17 -15.75 14.25 -13 C 10.863281 -9.613281 7.226562 -7.910156 3.34375 -7.890625 C -0.53125 -7.878906 -4.253906 -9.660156 -7.828125 -13.234375 C -11.578125 -16.984375 -13.03125 -21.054688 -12.1875 -25.453125 C -11.34375 -29.847656 -8.375 -34.78125 -3.28125 -40.25 L 2.65625 -46.5625 L 1.109375 -48.109375 C -2.460938 -51.679688 -6.082031 -51.632812 -9.75 -47.96875 C -12.570312 -45.144531 -15.03125 -40.988281 -17.125 -35.5 L -26.8125 -38.78125 C -24.875 -44.96875 -21.4375 -50.53125 -16.5 -55.46875 C -11.769531 -60.195312 -7.109375 -62.789062 -2.515625 -63.25 C 2.066406 -63.71875 6.457031 -61.851562 10.65625 -57.65625 L 34.15625 -34.15625 Z M 8.265625 -40.953125 L 4.671875 -37.078125 C 1.953125 -34.210938 0.375 -31.628906 -0.0625 -29.328125 C -0.507812 -27.035156 0.210938 -24.941406 2.109375 -23.046875 C 4.828125 -20.328125 7.742188 -20.523438 10.859375 -23.640625 C 13.085938 -25.867188 14.226562 -28.296875 14.28125 -30.921875 C 14.332031 -33.546875 13.296875 -35.921875 11.171875 -38.046875 Z M 8.265625 -40.953125 "/></g></g></g><g fill="#d9d9d9" fill-opacity="1"><g transform="translate(300.66334, 127.904162)"><g><path d="M -11.203125 -60.640625 C -9.890625 -61.953125 -8.710938 -62.941406 -7.671875 -63.609375 L 0.640625 -53.859375 C -0.359375 -53.296875 -1.414062 -52.457031 -2.53125 -51.34375 C -5.59375 -48.28125 -7.191406 -45.097656 -7.328125 -41.796875 C -7.472656 -38.503906 -6.125 -35.4375 -3.28125 -32.59375 L 14.65625 -14.65625 L 5.046875 -5.046875 L -30.203125 -40.296875 L -22.921875 -47.578125 L -15.578125 -43.078125 L -15.109375 -43.546875 C -15.992188 -46.617188 -16.109375 -49.6875 -15.453125 -52.75 C -14.804688 -55.820312 -13.390625 -58.453125 -11.203125 -60.640625 Z M -11.203125 -60.640625 "/></g></g></g><g clip-path="url(#8a3b7788cf)"><g fill="#d9d9d9" fill-opacity="1"><g transform="translate(329.991202, 98.576299)"><g><path d="M -35.25 -35.25 L -24.71875 -45.78125 L 1.765625 -32.609375 C 4.054688 -31.460938 6.484375 -29.804688 9.046875 -27.640625 L 9.25 -27.84375 C 7.3125 -30.238281 5.71875 -32.726562 4.46875 -35.3125 L -8.828125 -61.671875 L 1.484375 -71.984375 L 26.328125 -17.328125 C 28.648438 -12.273438 29.457031 -7.566406 28.75 -3.203125 C 28.039062 1.160156 25.992188 5.035156 22.609375 8.421875 C 20.953125 10.078125 19.144531 11.53125 17.1875 12.78125 L 9.546875 5.140625 C 10.972656 4.253906 12.367188 3.128906 13.734375 1.765625 C 15.441406 0.0546875 16.410156 -1.945312 16.640625 -4.25 C 16.878906 -6.5625 16.304688 -9.128906 14.921875 -11.953125 L 13.75 -14.25 Z M -35.25 -35.25 "/></g></g></g></g></g></g></g></g></g></g></svg>